<svg xmlns="http://www.w3.org/2000/svg" width="40" height="40" viewBox="0 0 40 40" fill="none" stroke="white" stroke-width="2" stroke-linecap="round" stroke-linejoin="round" class="lucide lucide-calendar-heart-icon lucide-calendar-heart">
	<circle cx="20" cy="20" r="20" fill="#1E63D1" stroke="none" />
	<g transform="translate(8 8)">
		<path d="M12.127 22H5a2 2 0 0 1-2-2V6a2 2 0 0 1 2-2h14a2 2 0 0 1 2 2v5.125"/>
		<path d="M14.62 18.8A2.25 2.25 0 1 1 18 15.836a2.25 2.25 0 1 1 3.38 2.966l-2.626 2.856a.998.998 0 0 1-1.507 0z"/>
		<path d="M16 2v4"/>
		<path d="M3 10h18"/>
		<path d="M8 2v4"/>
	</g>
</svg>